# xmcd
#
# Track frame offsets:
#	150
#	14669
#	28212
#	41209
#	56545
#	69107
#	87047
#	103531
#	119130
#	134893
#	150372
#	165310
#	179341
#	193290
#
# Disc length: 2797 seconds
#
# Revision: 1
# Processed by: cddbd v1.5.2PL0 Copyright (c) Steve Scherf et al.
# Submitted via: audiograbber 1.83.01
#
DISCID=c30aeb0e
DTITLE=Gipsy Kings - Pasajero
DYEAR=2006
DGENRE=
TTITLE0=Si Tu Me Quieres 
TTITLE1=Pueblos
TTITLE2=Mira la chica
TTITLE3=Cafe
TTITLE4=Chan Chan
TTITLE5=Canastero
TTITLE6=Donde Esta Mi Amour 
TTITLE7=Amor
TTITLE8=La Tounga
TTITLE9=Sol y luna
TTITLE10=Guaranga
TTITLE11=Pasajero
TTITLE12=Recuerdos
TTITLE13=La vida de Gipsy
EXTD=
EXTT0=
EXTT1=
EXTT2=
EXTT3=
EXTT4=
EXTT5=
EXTT6=
EXTT7=
EXTT8=
EXTT9=
EXTT10=
EXTT11=
EXTT12=
EXTT13=
PLAYORDER=
